<mxfile host="app.diagrams.net" agent="Mozilla/5.0 (Windows NT 10.0; Win64; x64) AppleWebKit/537.36 (KHTML, like Gecko) Chrome/128.0.0.0 Safari/537.36 Edg/128.0.0.0" version="24.7.14">
  <diagram id="C5RBs43oDa-KdzZeNtuy" name="Page-1">
    <mxGraphModel dx="693" dy="398" grid="1" gridSize="10" guides="1" tooltips="1" connect="1" arrows="1" fold="1" page="1" pageScale="1" pageWidth="827" pageHeight="1169" math="0" shadow="0">
      <root>
        <mxCell id="WIyWlLk6GJQsqaUBKTNV-0" />
        <mxCell id="WIyWlLk6GJQsqaUBKTNV-1" parent="WIyWlLk6GJQsqaUBKTNV-0" />
        <mxCell id="XwbtFIUzSEmvOVA7ZaRl-4" value="" style="edgeStyle=orthogonalEdgeStyle;rounded=0;orthogonalLoop=1;jettySize=auto;html=1;" edge="1" parent="WIyWlLk6GJQsqaUBKTNV-1" source="XwbtFIUzSEmvOVA7ZaRl-0" target="XwbtFIUzSEmvOVA7ZaRl-2">
          <mxGeometry relative="1" as="geometry" />
        </mxCell>
        <mxCell id="XwbtFIUzSEmvOVA7ZaRl-0" value="Start" style="ellipse;whiteSpace=wrap;html=1;" vertex="1" parent="WIyWlLk6GJQsqaUBKTNV-1">
          <mxGeometry x="320" y="30" width="70" height="30" as="geometry" />
        </mxCell>
        <mxCell id="XwbtFIUzSEmvOVA7ZaRl-8" value="" style="edgeStyle=orthogonalEdgeStyle;rounded=0;orthogonalLoop=1;jettySize=auto;html=1;" edge="1" parent="WIyWlLk6GJQsqaUBKTNV-1" source="XwbtFIUzSEmvOVA7ZaRl-2" target="XwbtFIUzSEmvOVA7ZaRl-7">
          <mxGeometry relative="1" as="geometry" />
        </mxCell>
        <mxCell id="XwbtFIUzSEmvOVA7ZaRl-2" value="Connect to User database" style="strokeWidth=2;html=1;shape=mxgraph.flowchart.database;whiteSpace=wrap;" vertex="1" parent="WIyWlLk6GJQsqaUBKTNV-1">
          <mxGeometry x="303.75" y="90" width="102.5" height="90" as="geometry" />
        </mxCell>
        <mxCell id="XwbtFIUzSEmvOVA7ZaRl-12" value="" style="edgeStyle=orthogonalEdgeStyle;rounded=0;orthogonalLoop=1;jettySize=auto;html=1;" edge="1" parent="WIyWlLk6GJQsqaUBKTNV-1" source="XwbtFIUzSEmvOVA7ZaRl-7" target="XwbtFIUzSEmvOVA7ZaRl-11">
          <mxGeometry relative="1" as="geometry" />
        </mxCell>
        <mxCell id="XwbtFIUzSEmvOVA7ZaRl-14" value="" style="edgeStyle=orthogonalEdgeStyle;rounded=0;orthogonalLoop=1;jettySize=auto;html=1;" edge="1" parent="WIyWlLk6GJQsqaUBKTNV-1" source="XwbtFIUzSEmvOVA7ZaRl-7" target="XwbtFIUzSEmvOVA7ZaRl-13">
          <mxGeometry relative="1" as="geometry" />
        </mxCell>
        <mxCell id="XwbtFIUzSEmvOVA7ZaRl-7" value="is&amp;nbsp; User Logged in&amp;nbsp;" style="strokeWidth=2;html=1;shape=mxgraph.flowchart.decision;whiteSpace=wrap;" vertex="1" parent="WIyWlLk6GJQsqaUBKTNV-1">
          <mxGeometry x="305" y="220" width="100" height="100" as="geometry" />
        </mxCell>
        <mxCell id="XwbtFIUzSEmvOVA7ZaRl-16" value="" style="edgeStyle=orthogonalEdgeStyle;rounded=0;orthogonalLoop=1;jettySize=auto;html=1;" edge="1" parent="WIyWlLk6GJQsqaUBKTNV-1" source="XwbtFIUzSEmvOVA7ZaRl-11" target="XwbtFIUzSEmvOVA7ZaRl-15">
          <mxGeometry relative="1" as="geometry" />
        </mxCell>
        <mxCell id="XwbtFIUzSEmvOVA7ZaRl-18" value="" style="edgeStyle=orthogonalEdgeStyle;rounded=0;orthogonalLoop=1;jettySize=auto;html=1;" edge="1" parent="WIyWlLk6GJQsqaUBKTNV-1" source="XwbtFIUzSEmvOVA7ZaRl-11" target="XwbtFIUzSEmvOVA7ZaRl-17">
          <mxGeometry relative="1" as="geometry" />
        </mxCell>
        <mxCell id="XwbtFIUzSEmvOVA7ZaRl-11" value="Send to Login&amp;nbsp;" style="rounded=1;whiteSpace=wrap;html=1;absoluteArcSize=1;arcSize=14;strokeWidth=2;" vertex="1" parent="WIyWlLk6GJQsqaUBKTNV-1">
          <mxGeometry x="470" y="220" width="100" height="100" as="geometry" />
        </mxCell>
        <mxCell id="XwbtFIUzSEmvOVA7ZaRl-20" value="" style="edgeStyle=orthogonalEdgeStyle;rounded=0;orthogonalLoop=1;jettySize=auto;html=1;" edge="1" parent="WIyWlLk6GJQsqaUBKTNV-1" source="XwbtFIUzSEmvOVA7ZaRl-13" target="XwbtFIUzSEmvOVA7ZaRl-19">
          <mxGeometry relative="1" as="geometry">
            <Array as="points">
              <mxPoint x="355" y="470" />
              <mxPoint x="90" y="470" />
            </Array>
          </mxGeometry>
        </mxCell>
        <mxCell id="XwbtFIUzSEmvOVA7ZaRl-22" value="" style="edgeStyle=orthogonalEdgeStyle;rounded=0;orthogonalLoop=1;jettySize=auto;html=1;" edge="1" parent="WIyWlLk6GJQsqaUBKTNV-1" source="XwbtFIUzSEmvOVA7ZaRl-13" target="XwbtFIUzSEmvOVA7ZaRl-21">
          <mxGeometry relative="1" as="geometry" />
        </mxCell>
        <mxCell id="XwbtFIUzSEmvOVA7ZaRl-24" style="edgeStyle=orthogonalEdgeStyle;rounded=0;orthogonalLoop=1;jettySize=auto;html=1;entryX=0.5;entryY=0;entryDx=0;entryDy=0;" edge="1" parent="WIyWlLk6GJQsqaUBKTNV-1" source="XwbtFIUzSEmvOVA7ZaRl-13" target="XwbtFIUzSEmvOVA7ZaRl-25">
          <mxGeometry relative="1" as="geometry">
            <mxPoint x="390" y="500" as="targetPoint" />
          </mxGeometry>
        </mxCell>
        <mxCell id="XwbtFIUzSEmvOVA7ZaRl-27" style="edgeStyle=orthogonalEdgeStyle;rounded=0;orthogonalLoop=1;jettySize=auto;html=1;entryX=0.5;entryY=0;entryDx=0;entryDy=0;" edge="1" parent="WIyWlLk6GJQsqaUBKTNV-1" source="XwbtFIUzSEmvOVA7ZaRl-13" target="XwbtFIUzSEmvOVA7ZaRl-26">
          <mxGeometry relative="1" as="geometry">
            <Array as="points">
              <mxPoint x="355" y="470" />
              <mxPoint x="540" y="470" />
            </Array>
          </mxGeometry>
        </mxCell>
        <mxCell id="XwbtFIUzSEmvOVA7ZaRl-13" value="Dashboard" style="rounded=1;whiteSpace=wrap;html=1;strokeWidth=2;" vertex="1" parent="WIyWlLk6GJQsqaUBKTNV-1">
          <mxGeometry x="295" y="370" width="120" height="60" as="geometry" />
        </mxCell>
        <mxCell id="XwbtFIUzSEmvOVA7ZaRl-15" value="or Register&lt;div&gt;&lt;br&gt;&lt;/div&gt;" style="rounded=1;whiteSpace=wrap;html=1;arcSize=14;strokeWidth=2;" vertex="1" parent="WIyWlLk6GJQsqaUBKTNV-1">
          <mxGeometry x="640" y="240" width="120" height="60" as="geometry" />
        </mxCell>
        <mxCell id="XwbtFIUzSEmvOVA7ZaRl-17" value="Forgot password / reset password" style="rounded=1;whiteSpace=wrap;html=1;arcSize=14;strokeWidth=2;" vertex="1" parent="WIyWlLk6GJQsqaUBKTNV-1">
          <mxGeometry x="460" y="370" width="120" height="60" as="geometry" />
        </mxCell>
        <mxCell id="XwbtFIUzSEmvOVA7ZaRl-19" value="Settings" style="rounded=1;whiteSpace=wrap;html=1;strokeWidth=2;" vertex="1" parent="WIyWlLk6GJQsqaUBKTNV-1">
          <mxGeometry x="30" y="510" width="120" height="60" as="geometry" />
        </mxCell>
        <mxCell id="XwbtFIUzSEmvOVA7ZaRl-21" value="Orders" style="rounded=1;whiteSpace=wrap;html=1;strokeWidth=2;" vertex="1" parent="WIyWlLk6GJQsqaUBKTNV-1">
          <mxGeometry x="175" y="510" width="120" height="60" as="geometry" />
        </mxCell>
        <mxCell id="XwbtFIUzSEmvOVA7ZaRl-25" value="Cart" style="rounded=1;whiteSpace=wrap;html=1;strokeWidth=2;" vertex="1" parent="WIyWlLk6GJQsqaUBKTNV-1">
          <mxGeometry x="330" y="510" width="120" height="60" as="geometry" />
        </mxCell>
        <mxCell id="XwbtFIUzSEmvOVA7ZaRl-26" value="Wishlist" style="rounded=1;whiteSpace=wrap;html=1;strokeWidth=2;" vertex="1" parent="WIyWlLk6GJQsqaUBKTNV-1">
          <mxGeometry x="480" y="510" width="120" height="60" as="geometry" />
        </mxCell>
      </root>
    </mxGraphModel>
  </diagram>
</mxfile>
